<?xml version="1.0" standalone="no"?>
<!DOCTYPE svg PUBLIC "-//W3C//DTD SVG 20010904//EN"
 "http://www.w3.org/TR/2001/REC-SVG-20010904/DTD/svg10.dtd">
<svg version="1.0" xmlns="http://www.w3.org/2000/svg"
 width="200.000000pt" height="200.000000pt" viewBox="0 0 200.000000 200.000000"
 preserveAspectRatio="xMidYMid meet">

<g transform="translate(0.000000,200.000000) scale(0.100000,-0.100000)"
fill="#000000" stroke="none">
<path d="M927 1886 c-123 -46 -217 -204 -236 -399 -4 -43 -5 -80 -2 -82 2 -3
139 -5 303 -5 l298 0 0 58 c0 114 -52 263 -120 345 -64 76 -166 112 -243 83z"/>
<path d="M660 835 l0 -545 330 0 330 0 0 545 0 545 -330 0 -330 0 0 -545z"/>
<path d="M700 235 l0 -35 290 0 290 0 0 35 0 35 -290 0 -290 0 0 -35z"/>
<path d="M660 145 l0 -45 330 0 330 0 0 45 0 45 -330 0 -330 0 0 -45z"/>
</g>
</svg>
